<?xml version="1.0" standalone="no"?>
<!DOCTYPE svg PUBLIC "-//W3C//DTD SVG 20010904//EN"
 "http://www.w3.org/TR/2001/REC-SVG-20010904/DTD/svg10.dtd">
<svg version="1.0" xmlns="http://www.w3.org/2000/svg"
 width="122.000000pt" height="115.000000pt" viewBox="0 0 122.000000 115.000000"
 preserveAspectRatio="xMidYMid meet">
<metadata>
Created by potrace 1.10, written by Peter Selinger 2001-2011
</metadata>
<g transform="translate(0.000000,115.000000) scale(0.100000,-0.100000)"
fill="#000000" stroke="none">
<path d="M57 1133 c-4 -3 -7 -120 -7 -259 l0 -254 23 -5 c12 -3 54 -6 92 -7
67 -3 70 -4 71 -28 2 -53 5 -61 24 -80 28 -28 81 -26 108 3 15 16 22 36 22 65
l0 42 83 0 c51 0 88 5 95 12 7 7 12 39 12 75 0 57 -2 63 -20 63 -55 0 -110 57
-110 115 0 58 50 115 102 115 28 0 28 1 28 63 0 36 -5 68 -12 75 -13 13 -499
18 -511 5z m489 -24 c6 -5 10 -19 9 -32 -1 -12 -3 -29 -4 -38 0 -9 -19 -24
-41 -34 -22 -10 -47 -28 -55 -41 -29 -44 -115 -23 -122 30 -5 39 -41 68 -65
52 -11 -6 -21 -22 -24 -36 -13 -56 -16 -60 -40 -60 -14 0 -34 -5 -45 -10 -38
-21 -14 -76 35 -82 30 -3 38 -12 53 -63 6 -22 15 -31 36 -33 22 -3 29 2 38 25
29 72 31 74 71 71 29 -1 38 -6 38 -20 0 -19 60 -92 68 -83 3 2 16 -7 29 -21
17 -19 23 -35 21 -58 -3 -31 -3 -31 -73 -37 -93 -7 -102 -12 -110 -65 -12 -84
-83 -84 -104 0 -14 56 -40 70 -118 64 -28 -2 -50 -1 -47 3 2 4 -2 9 -8 11 -17
6 -24 419 -8 448 10 18 25 20 188 22 194 3 261 0 278 -13z m-242 -86 c4 -9 4
-36 0 -61 l-7 -44 49 2 c70 3 74 2 74 -15 0 -18 -35 -28 -81 -23 -33 3 -34 2
-31 -32 4 -48 -5 -80 -23 -80 -17 0 -17 4 -15 74 l2 48 -41 -7 c-47 -8 -81 1
-81 21 0 16 4 16 73 14 l49 -2 -3 49 c-3 49 4 73 21 73 4 0 11 -8 14 -17z"/>
<path d="M632 1128 c-7 -7 -12 -43 -12 -96 l0 -84 -27 2 c-70 5 -103 -18 -103
-73 0 -47 34 -77 88 -77 l42 0 0 -83 c0 -51 5 -88 12 -95 7 -7 39 -12 75 -12
57 0 63 2 63 20 0 55 57 110 115 110 58 0 115 -50 115 -102 0 -28 1 -28 64
-28 42 0 67 5 75 14 8 9 11 87 9 262 l-3 249 -250 3 c-187 2 -254 -1 -263 -10z
m455 -13 c27 -5 33 -11 38 -38 8 -48 1 -410 -8 -424 -5 -7 -25 -13 -46 -13
-34 0 -39 4 -55 40 -24 55 -67 83 -126 83 -53 0 -115 -31 -125 -65 -11 -32
-38 -58 -61 -58 -48 0 -54 8 -54 80 0 76 -16 100 -72 106 -18 2 -35 9 -36 14
-2 6 -7 8 -11 6 -9 -6 -12 20 -5 52 3 17 11 22 38 22 21 0 42 9 60 25 23 21
26 32 26 87 0 35 4 68 8 75 4 6 23 13 42 15 55 5 351 0 387 -7z"/>
<path d="M841 948 c-67 -8 -90 -27 -72 -61 12 -23 18 -24 129 -26 64 -1 120
-5 126 -8 5 -3 6 -1 3 4 -4 6 2 13 13 16 21 5 26 32 10 57 -11 18 -129 28
-209 18z m202 -28 c14 0 7 -28 -9 -34 -9 -3 -62 -6 -119 -6 -57 0 -110 3 -119
6 -18 7 -22 30 -6 36 7 2 189 1 253 -2z"/>
<path d="M832 677 c-15 -16 -22 -36 -22 -65 l0 -42 -83 0 c-51 0 -88 -5 -95
-12 -7 -7 -12 -39 -12 -75 0 -57 2 -63 20 -63 55 0 110 -57 110 -115 0 -58
-50 -115 -103 -115 l-28 0 3 -72 3 -73 260 0 260 0 0 260 0 260 -90 5 c-88 5
-90 6 -91 30 -2 53 -5 61 -24 80 -28 28 -81 26 -108 -3z m79 -17 c13 -7 19
-21 19 -43 0 -55 30 -77 104 -77 42 0 67 -5 75 -14 8 -9 12 -80 12 -221 1
-175 -1 -209 -14 -223 -14 -13 -47 -15 -228 -14 -228 2 -229 2 -229 55 0 22 7
31 33 42 116 48 128 213 19 263 -20 9 -40 22 -44 27 -9 11 -7 84 1 83 3 0 36
0 73 1 76 1 106 21 106 68 0 16 9 34 22 45 26 21 26 21 51 8z"/>
<path d="M808 382 c-20 -24 -18 -45 8 -79 l24 -32 -24 -28 c-28 -33 -28 -59
-1 -79 24 -18 30 -17 49 1 8 9 19 16 23 17 4 0 14 3 21 5 12 5 18 3 60 -21 52
-30 88 16 52 66 -25 35 -25 52 1 88 21 27 21 30 6 54 -11 16 -24 24 -36 21
-29 -5 -61 -24 -61 -35 0 -16 -17 -11 -47 14 -32 26 -58 29 -75 8z m149 -40
c36 36 43 39 49 24 5 -13 -4 -29 -29 -54 l-37 -36 41 -42 c33 -33 37 -43 26
-52 -11 -9 -22 -3 -52 28 l-39 40 -37 -36 c-26 -26 -43 -35 -55 -30 -15 6 -11
13 24 49 l42 43 -40 39 c-31 30 -37 41 -28 52 9 12 19 7 52 -26 l40 -41 43 42z"/>
<path d="M62 562 c-9 -7 -12 -66 -10 -263 l3 -254 260 0 260 0 5 90 c5 99 -1
90 73 94 29 2 57 38 57 74 0 47 -34 77 -88 77 l-42 0 0 83 c0 51 -5 88 -12 95
-7 7 -39 12 -75 12 -57 0 -63 -2 -63 -20 0 -59 -58 -110 -124 -110 -48 0 -106
54 -106 99 l0 31 -62 0 c-35 0 -69 -4 -76 -8z m117 -54 c18 -40 69 -88 94 -88
10 0 16 -4 13 -9 -4 -5 0 -12 6 -15 7 -3 2 -4 -11 -3 -18 1 -28 -6 -43 -35
-19 -35 -34 -44 -74 -39 -14 1 -31 -39 -27 -61 3 -9 23 -22 49 -29 24 -7 44
-19 44 -26 0 -18 37 -53 55 -53 22 0 55 37 49 55 -5 11 -2 14 12 8 12 -4 15
-3 10 5 -5 8 2 12 23 12 31 0 61 22 61 45 0 18 -36 41 -77 50 -22 4 -30 11
-26 20 3 8 -2 22 -11 31 -22 21 -16 36 14 41 13 2 27 7 30 12 3 5 15 11 27 15
13 4 35 28 49 52 25 42 29 45 63 42 l36 -3 3 -70 c3 -79 26 -115 71 -115 34 0
50 -11 52 -35 4 -44 -1 -51 -37 -53 -20 -2 -47 -10 -60 -20 -20 -15 -23 -26
-24 -82 0 -36 -4 -71 -8 -78 -12 -19 -441 -20 -453 -1 -10 16 -10 23 -13 244
-2 217 -4 211 47 213 39 2 43 0 56 -30z m130 -147 c8 -14 7 -22 -4 -31 -19
-16 -45 -6 -45 18 0 36 33 45 49 13z m109 -83 c2 -10 0 -18 -5 -18 -151 -6
-246 -3 -256 8 -19 23 9 29 136 28 108 -1 122 -3 125 -18z m-109 -62 c9 -11 8
-17 -4 -30 -19 -18 -45 -11 -45 13 0 32 28 42 49 17z"/>
</g>
</svg>
